<?xml version="1.0" encoding="UTF-8" standalone="no"?>
<svg
   role="img"
   viewBox="0 0 24 24"
   version="1.1"
   id="svg1"
   sodipodi:docname="Bioconductor-note.svg"
   xml:space="preserve"
   inkscape:version="1.3.2 (091e20e, 2023-11-25, custom)"
   xmlns:inkscape="http://www.inkscape.org/namespaces/inkscape"
   xmlns:sodipodi="http://sodipodi.sourceforge.net/DTD/sodipodi-0.dtd"
   xmlns="http://www.w3.org/2000/svg"
   xmlns:svg="http://www.w3.org/2000/svg"><defs
     id="defs1" /><sodipodi:namedview
     id="namedview1"
     pagecolor="#ffffff"
     bordercolor="#999999"
     borderopacity="1"
     inkscape:showpageshadow="0"
     inkscape:pageopacity="0"
     inkscape:pagecheckerboard="0"
     inkscape:deskcolor="#d1d1d1"
     inkscape:zoom="12.241786"
     inkscape:cx="14.622049"
     inkscape:cy="12.53902"
     inkscape:window-width="1920"
     inkscape:window-height="1009"
     inkscape:window-x="-8"
     inkscape:window-y="-8"
     inkscape:window-maximized="1"
     inkscape:current-layer="g25" /><title
     id="title1">Bioconductor</title><g
     id="g25"
     transform="matrix(0.10357386,0,0,0.10357386,4.0843293,30.580107)"
     style="stroke-width:9.65495"><g
       id="g23"
       style="fill:#8aca25;fill-opacity:1;stroke-width:9.65495"><path
         style="fill:#8aca25;fill-opacity:1;stroke-width:9.65495"
         d="m 104.65198,-282.97394 c -2.68141,-0.76196 -4.48,-3.18043 -4.48,-6.02402 0,-4.67841 4.82102,-7.66492 8.9925,-5.57065 1.76795,0.88759 3.48393,3.63137 3.48393,5.57065 0,2.4681 -2.09707,5.18376 -4.57009,5.91817 -1.82846,0.54299 -1.88214,0.54465 -3.42634,0.10585 z"
         id="path23" /><path
         style="fill:#8aca25;fill-opacity:1;stroke-width:9.65495"
         d="m 89.936024,-278.84594 c -4.37794,-2.3151 -2.72544,-8.87202 2.23596,-8.87202 4.96839,0 6.63044,6.62281 2.22852,8.88 -1.77162,0.90844 -2.73477,0.90672 -4.46448,-0.008 z"
         id="path21" /><path
         style="fill:#8aca25;fill-opacity:1;stroke-width:9.65495"
         d="m 121.29198,-274.61823 c -1.52709,-0.63718 -3.20295,-2.61138 -3.71659,-4.37823 -0.44014,-1.51405 -0.43902,-1.85283 0.0113,-3.40195 1.21984,-4.19612 6.32527,-6.02114 9.85926,-3.52436 3.59061,2.53677 3.57559,7.96364 -0.0291,10.51006 -1.07635,0.76036 -1.728,0.96316 -3.3315,1.03677 -1.09638,0.0503 -2.35342,-0.0587 -2.79342,-0.24229 z"
         id="path19" /><path
         style="fill:#8aca25;fill-opacity:1;stroke-width:9.65495"
         d="m 80.764974,-270.41439 c -2.81966,-1.71933 -1.50152,-6.10357 1.83506,-6.10357 2.36404,0 3.96518,2.40796 3.05292,4.5913 -0.49608,1.18728 -1.88903,2.12955 -3.14508,2.1275 -0.40474,-6.5e-4 -1.18904,-0.27751 -1.7429,-0.61523 z"
         id="path18" /><path
         style="fill:#8aca25;fill-opacity:1;stroke-width:9.65495"
         d="m 136.72295,-260.02827 c -1.98879,-0.62103 -3.41042,-1.84226 -4.35789,-3.74357 -2.96331,-5.9466 2.41669,-12.63102 8.98337,-11.16146 1.50103,0.33592 2.10224,0.69229 3.46221,2.05226 2.42214,2.42213 2.94181,4.81454 1.74223,8.0207 -0.8255,2.20634 -2.91662,4.14408 -5.20571,4.82386 -1.92916,0.5729 -2.81081,0.57447 -4.62421,0.008 z"
         id="path14" /><path
         style="fill:#8aca25;fill-opacity:1;stroke-width:9.65495"
         d="m 156.17198,-245.78339 c -2.11123,-0.72518 -4.46455,-3.07305 -5.05479,-5.04309 -2.18093,-7.27933 4.8427,-13.51247 11.52826,-10.23078 3.27093,1.60557 4.96697,4.62795 4.63729,8.26372 -0.30306,3.34227 -2.6343,6.21767 -5.80884,7.16477 -2.05649,0.61354 -3.15918,0.58138 -5.30192,-0.15462 z"
         id="path11" /><path
         style="fill:#8aca25;fill-opacity:1;stroke-width:9.65495"
         d="m 48.962378,-242.03796 c -3.30159,-1.66791 -4.18291,-5.76285 -1.81961,-8.45451 2.38868,-2.72055 6.06975,-2.72055 8.458436,0 1.658,1.88837 1.78172,4.45947 0.32041,6.65875 -0.82769,1.24567 -3.124576,2.51576 -4.549626,2.51576 -0.54142,0 -1.62574,-0.324 -2.40961,-0.72 z"
         id="path10" /><path
         style="fill:#8aca25;fill-opacity:1;stroke-width:9.65495"
         d="m 171.37198,-239.8752 c -4.43783,-1.58289 -4.14096,-7.77609 0.43852,-9.14814 1.18374,-0.35465 1.52585,-0.32837 2.84583,0.21869 2.78906,1.15589 3.87591,3.85701 2.5908,6.43884 -1.16964,2.34985 -3.50005,3.33777 -5.87515,2.49061 z"
         id="path8" /><path
         style="fill:#8aca25;fill-opacity:1;stroke-width:9.65495"
         d="m 182.25198,-234.40151 c -2.07632,-0.9052 -2.52926,-3.86455 -0.8246,-5.38766 2.74657,-2.45407 6.75263,0.33496 5.3394,3.7173 -0.34186,0.81819 -0.83355,1.31977 -1.613,1.64545 -1.34897,0.56363 -1.65996,0.5663 -2.9018,0.0249 z"
         id="path6" /><path
         style="fill:#8aca25;fill-opacity:1;stroke-width:9.65495"
         d="m 29.943018,-232.11911 c -1.69361,-0.44714 -4.37648,-3.13771 -4.90187,-4.91596 -0.81738,-2.76644 -0.15817,-5.67405 1.72632,-7.61446 1.54289,-1.58866 2.80354,-2.16597 5.13907,-2.35345 7.1707,-0.57559 10.90795,8.32292 5.52727,13.16062 -2.19017,1.96915 -4.52497,2.50627 -7.49079,1.72325 z"
         id="path4" /></g><g
       id="g24"
       style="fill:#3792ad;fill-opacity:1;stroke-width:9.65495"><path
         style="fill:#3792ad;fill-opacity:1;stroke-width:9.65495"
         d="m 175.85198,-282.16809 c -2.65737,-1.39652 -4.32593,-4.47485 -3.84671,-7.09685 0.51472,-2.81628 2.84345,-5.14502 5.65973,-5.65974 1.72741,-0.31571 4.38086,0.55383 5.59582,1.83376 1.65688,1.74548 2.11607,2.9704 1.97051,5.25641 -0.15846,2.48851 -1.32306,4.33982 -3.42968,5.45198 -1.682,0.888 -4.47634,0.98871 -5.94967,0.21444 z"
         id="path22" /><path
         style="fill:#3792ad;fill-opacity:1;stroke-width:9.65495"
         d="m 34.077858,-275.61514 c -2.65079,-0.56212 -4.92376,-3.4155 -4.93884,-6.19999 -0.0106,-1.96272 1.36907,-4.46465 2.9839,-5.41094 4.55204,-2.66748 9.80907,0.20784 9.80907,5.36503 0,4.21964 -3.66505,7.13422 -7.85413,6.2459 z"
         id="path20" /><path
         style="fill:#3792ad;fill-opacity:1;stroke-width:9.65495"
         d="m 167.5776,-267.56369 c -3.64974,-1.1069 -4.17535,-6.4324 -0.80678,-8.17436 0.70798,-0.3661 1.5125,-0.48452 2.58912,-0.38107 3.37729,0.32452 5.0904,4.01161 3.20256,6.89282 -0.89382,1.36414 -3.3109,2.17031 -4.9849,1.66261 z"
         id="path17" /><path
         style="fill:#3792ad;fill-opacity:1;stroke-width:9.65495"
         d="m 50.790808,-267.06158 c -4.8908,-1.74428 -6.32058,-8.43507 -2.59127,-12.12609 2.7,-2.67229 7.103216,-2.8028 10.079116,-0.29874 3.07448,2.587 3.19882,8.11484 0.24447,10.86859 -1.93649,1.805 -5.195606,2.46095 -7.732316,1.55624 z"
         id="path16" /><path
         style="fill:#3792ad;fill-opacity:1;stroke-width:9.65495"
         d="m 19.153608,-266.33078 c -2.2665,-0.61651 -4.10933,-3.18622 -4.09281,-5.70718 0.003,-0.44 0.27441,-1.39272 0.60339,-2.11715 1.55443,-3.42297 6.07541,-4.41655 8.88231,-1.95207 2.09068,1.83565 2.57862,4.32453 1.34672,6.8693 -1.16924,2.41534 -4.02262,3.64613 -6.73961,2.9071 z"
         id="path15" /><path
         style="fill:#3792ad;fill-opacity:1;stroke-width:9.65495"
         d="m 11.294698,-256.58739 c -1.02842,-0.19266 -2.5211202,-1.80262 -2.7548502,-2.97124 -0.11576,-0.57884 -0.0159,-1.43929 0.23738,-2.0455 1.6495702,-3.94798 7.2292002,-2.82056 7.2335602,1.46162 0.002,2.23657 -2.33789,4.00066 -4.71609,3.55512 z"
         id="path13" /><path
         style="fill:#3792ad;fill-opacity:1;stroke-width:9.65495"
         d="m 67.116844,-251.6995 c -4.30228,-1.53466 -6.90994,-5.92438 -6.01054,-10.1181 0.67512,-3.14799 2.3191,-5.29366 5.14568,-6.71596 1.80473,-0.90813 5.29307,-1.00824 7.14822,-0.20516 4.40956,1.90886 6.55362,6.55475 5.1899,11.24579 -0.73538,2.52963 -3.1732,5.01926 -5.62888,5.74852 -2.06212,0.61238 -4.2073,0.62887 -5.84438,0.0449 z"
         id="path12" /><path
         style="fill:#3792ad;fill-opacity:1;stroke-width:9.65495"
         d="m 144.99653,-241.50641 c -2.73961,-2.30523 0.51005,-6.47459 3.44445,-4.41926 1.66594,1.16688 1.50878,3.84838 -0.27976,4.77328 -1.30445,0.67455 -2.0401,0.59226 -3.16469,-0.35402 z"
         id="path9" /><path
         style="fill:#3792ad;fill-opacity:1;stroke-width:9.65495"
         d="m 83.928424,-239.8251 c -4.10079,-1.48723 -5.83379,-6.45524 -3.60647,-10.33869 3.57818,-6.23873 13.13003,-3.62844 13.13003,3.58812 0,5.06095 -4.80032,8.46355 -9.52356,6.75057 z"
         id="path7" /><path
         style="fill:#3792ad;fill-opacity:1;stroke-width:9.65495"
         d="m 134.53998,-233.44594 c -0.94853,-0.94853 -1.088,-1.29404 -1.088,-2.69538 0,-1.36389 0.14731,-1.7547 0.97245,-2.57984 1.68853,-1.68853 3.94264,-1.62143 5.59981,0.16669 0.6166,0.66532 0.78774,1.1944 0.78774,2.43526 0,1.37619 -0.14349,1.72877 -1.088,2.67327 -0.92868,0.92868 -1.30823,1.088 -2.592,1.088 -1.28376,0 -1.66332,-0.15932 -2.592,-1.088 z"
         id="path5" /><path
         style="fill:#3792ad;fill-opacity:1;stroke-width:9.65495"
         d="m 103.04407,-229.87794 c -3.215186,-1.6262 -4.328516,-5.44461 -2.49813,-8.56792 1.37868,-2.35255 4.16854,-3.54091 6.71926,-2.86213 3.10596,0.82654 4.94068,3.40759 4.67757,6.58034 -0.36291,4.37612 -4.92227,6.86094 -8.8987,4.84971 z"
         id="path3" /><path
         style="fill:#3792ad;fill-opacity:1;stroke-width:9.65495"
         d="m 122.32906,-225.63621 c -4.19891,-2.56011 -2.35775,-8.81284 2.57309,-8.73846 1.69892,0.0256 2.73951,0.5983 3.89006,2.14082 0.93609,1.255 0.88566,3.87518 -0.10125,5.26117 -1.42152,1.99634 -4.29097,2.59914 -6.3619,1.33647 z"
         id="path2" /><path
         style="fill:#3792ad;fill-opacity:1;stroke-width:9.65495"
         d="m -22.228012,-63.743817 c -6.16559,-0.849784 -10.25877,-4.97144 -11.52213,-11.602267 -0.62378,-3.273979 -0.61021,-8.874913 0.0291,-11.985341 2.01914,-9.824569 10.50356,-19.026735 21.41308,-23.224525 6.8654798,-2.64172 14.8053598,-2.84559 19.4064598,-0.49828 l 1.20484,0.61466 0.22258,-1.18644 c 0.12242,-0.65255 0.14539,-31.68328 0.0511,-68.95719 l -0.17153,-67.77074 1.6433002,1.31309 c 0.90381,0.7222 2.32116,1.8373 3.14967,2.478 l 1.50637,1.16491 0.0136,76.61956 c 0.0153,86.232109 0.2582,78.258665 -2.5592,84.020446 -4.2434702,8.678206 -13.2582202,15.913381 -22.97103,18.436401 -2.88717,0.749976 -8.21143,1.019412 -11.41614,0.577716 z"
         id="path1" /></g></g></svg>
